<svg width="52" height="52" viewBox="0 0 52 52" fill="none" xmlns="http://www.w3.org/2000/svg">
<path d="M49.8825 16.2098C48.1585 12.0433 45.3821 8.40518 41.83 5.65815C38.2778 2.91113 34.074 1.15109 29.6374 0.553442C25.2008 -0.044206 20.6864 0.541408 16.5441 2.25192C12.4017 3.96243 8.77617 6.73811 6.02866 10.3023C3.28116 13.8666 1.50768 18.0948 0.884951 22.5658C0.262224 27.0368 0.812004 31.5943 2.4795 35.7842C4.147 39.9741 6.87397 43.65 10.3887 46.4457C13.9034 49.2413 18.083 51.059 22.5111 51.7176C21.9311 49.6093 21.3411 47.2791 20.8211 44.8077C22.3339 45.7975 23.9262 46.658 25.5813 47.38C25.5813 47.38 25.7013 49.5588 25.8613 51.9899C27.6496 52.021 29.4362 51.8621 31.1916 51.5158C31.1462 51.2623 31.1462 51.0027 31.1916 50.7492C31.4816 48.8628 32.2816 45.4634 32.4416 43.2744C33.595 42.1862 34.5734 40.9236 35.3418 39.5319L35.2818 39.9758C34.7317 44.273 33.5817 48.8628 32.8817 50.1338C32.655 50.5546 32.3761 50.9444 32.0516 51.2939C35.6716 50.4373 39.0636 48.7968 41.9924 46.4862C44.9212 44.1755 47.3168 41.25 49.013 37.9125C50.7093 34.5749 51.6656 30.9052 51.8158 27.1577C51.9659 23.4102 51.3062 19.6746 49.8825 16.2098ZM48.4124 20.033C47.9724 20.4667 47.0624 20.7592 46.9123 19.4479C46.7623 18.1365 46.7223 17.2186 46.7223 17.2186C46.7223 17.2186 44.7922 13.7586 44.0722 13.7182C43.3522 13.6779 38.2419 17.2186 36.8918 18.7619C35.7218 20.0632 35.4918 19.9724 35.4918 22.2623C35.4918 23.9872 35.7118 30.5037 35.5918 35.4869L27.4414 37.6759C24.8796 38.4175 22.2744 38.9969 19.641 39.4109L18.6409 33.5299H18.5009L15.9308 20.2448C15.9308 20.2448 12.1206 18.7922 10.7206 18.3988C10.0632 18.1087 9.33721 18.0144 8.6284 18.127C7.91959 18.2396 7.25752 18.5544 6.72036 19.0343C6.17235 19.5183 5.73415 20.1157 5.43561 20.7859C5.13706 21.4561 4.98517 22.1833 4.99027 22.918C5.20167 23.3868 5.3626 23.8772 5.4703 24.3806C5.5203 24.8648 4.27024 24.8144 3.4702 24.8144C2.67016 24.8144 2.55015 23.3618 3.18018 21.657C3.67171 20.3462 4.28094 19.0834 5.00027 17.8843C5.54132 16.8133 6.23918 15.8305 7.07038 14.9691C7.07038 14.9691 7.21038 14.6261 8.32044 14.727C9.43049 14.8278 15.6008 15.1607 15.6008 15.1607L15.6508 12.8709C22.3575 11.9368 29.1216 11.4851 35.8918 11.5192C35.8918 12.1345 35.8918 12.7498 35.8918 13.3652C38.4562 12.1847 41.2175 11.5004 44.0322 11.3477C44.1828 11.3438 44.332 11.3778 44.4664 11.4464C44.6008 11.5151 44.7162 11.6163 44.8022 11.7411C45.1423 12.1749 47.2124 14.7673 47.4524 15.1406C48.1246 16.1097 48.7359 17.1204 49.2825 18.1668C49.0951 18.8293 48.8012 19.4564 48.4124 20.0229V20.033Z" fill="#FDC305"/>
</svg>
